<?xml version="1.0" encoding="UTF-8"?>
<svg xmlns="http://www.w3.org/2000/svg" onmouseup="{ if(window.parent.document.onmouseup) window.parent.document.onmouseup(arguments[0]);}" viewBox="0 0 500 500" data-name="Layer 1" id="Layer_1"><defs><style>
      .cls-1 {
        fill: #fff;
      }

      .cls-2 {
        fill: #ea8458;
      }
    </style></defs><circle data-cppathid="10000" r="175" cy="250" cx="250" class="cls-2"/><g><path data-cppathid="10001" d="M282.26,186.67l59.1.04c9.96,1.48,16.64,9.96,16.59,19.95v121.18c.05,8.24-5.66,14.99-13.96,15.69h-188.23c-6.61-.7-12.05-5.46-13.3-12.03-.85-41.66-.11-83.43-.37-125.13.04-10.02,7.09-18.61,17.14-19.69h58.56c2.05-21.23,22.71-35.7,43.32-28.21,11.75,4.27,20.06,15.82,21.15,28.21ZM274.2,186.67c-.43-7.96-6.06-15.95-13.05-19.62-15.56-8.19-33.71,2.7-35.3,19.62h48.35ZM349.85,225.78l.04-21.42c-.5-5.2-4.63-9.09-9.68-9.89l-180.12-.03c-4.74.46-9.34,4.56-9.9,9.38-.76,6.55.51,14.31-.05,20.99l.47.97,88.03,31.11c.2,0,.35-2.56,2.32-2.87,5.64.37,12-.55,17.55-.03.62.06,1.73.21,1.99.87.1.25-.22.68-.09.82.13.16.65-.15.53.33h-.57s0,.58,0,.58l.58.14-.58.43,2.46-.57.25.56c1.25-.26,1.65-.69,2.36-1.68l84.4-29.7ZM150.16,233.87v96.55c0,2.28,4.38,5.65,6.75,5.33h186.22c8.95-.91,7.88-11.46,6.73-17.98l.02-83.91-88.16,31.13c-.36.11-.42.33-.48.67-.64,3.41,1.93,10.06-3.01,10.52-4,.37-12.44.39-16.43,0-4.91-.47-2.37-7.16-3-10.52-.06-.34-.12-.56-.48-.67l-88.16-31.13Z" class="cls-1"/><path data-cppathid="10002" d="M344.12,346.39l-188.66-.02c-7.98-.85-14.34-6.61-15.81-14.34l-.05-.48c-.52-25.52-.44-51.49-.37-76.61.05-15.92.1-32.39,0-48.56.05-11.66,8.51-21.35,19.7-22.56l.31-.02h56.05c1.71-10.36,7.58-19.33,16.36-24.87,9.09-5.74,20.18-6.89,30.45-3.17,11.76,4.27,20.62,15.34,22.7,28.03l57,.07c11.08,1.65,19.09,11.24,19.04,22.8v121.17c.06,9.92-6.91,17.73-16.58,18.54h-.12ZM155.92,340.66h187.95c6.55-.6,11.27-5.97,11.22-12.8v-121.2c.04-8.77-5.69-15.77-13.95-17.09l-61.5-.04-.23-2.61c-1.02-11.6-8.77-21.95-19.28-25.77-8.71-3.16-17.75-2.23-25.44,2.63-8,5.05-13.12,13.49-14.06,23.16l-.25,2.59h-61c-8.34.99-14.4,8.04-14.44,16.85.1,16.17.05,32.65,0,48.59-.07,25-.15,50.85.36,76.22,1.07,5.07,5.29,8.85,10.6,9.48ZM156.57,338.64c-2.83,0-5.46-2.1-6.25-2.79-1.13-.99-3.02-3-3.02-5.43v-100.6l91.97,32.48c.81.25,1.99.98,2.34,2.84.25,1.35.15,2.87.05,4.33-.08,1.15-.23,3.29.11,3.83.02-.02.11.03.3.04,3.71.36,12.02.36,15.89,0,.26-.03.35-.07.36-.07.29-.45.14-2.59.06-3.74-.1-1.48-.21-3,.04-4.38.35-1.86,1.53-2.59,2.46-2.87l91.86-32.44-.02,87.71c.9,5.2,1.63,12.51-1.85,17.11-1.74,2.3-4.25,3.63-7.45,3.96h-.29s-186.06.01-186.06.01c-.17.02-.33.02-.5.02ZM153.02,330.29c.36.93,2.62,2.61,3.56,2.62l.19-.03h.14s186.06,0,186.06,0c2.01-.24,2.86-1.08,3.33-1.7,2.44-3.23,1.16-10.52.73-12.92l-.04-.5.02-79.86-83.02,29.32c0,.58.05,1.23.1,1.88.22,3.03.67,9.34-5.59,9.92-4.28.4-12.85.4-16.97,0-6.24-.6-5.79-6.93-5.58-9.97.04-.64.09-1.29.1-1.84l-83.03-29.31v92.38ZM153,330.24h0ZM237.33,267.68c.05.02.1.04.16.05l-.16-.05ZM262.8,267.65l-.13.04s.09-.03.13-.04ZM247.61,263.11l8.58-6.38c-2.15-.07-4.42.02-6.79.12-2.55.1-5.18.21-7.73.1-.05.14-.1.29-.12.39-.63,2.11-2.08,2.43-2.89,2.44h-.5s-.47-.16-.47-.16l-89.14-31.5-1.33-2.73.07-.79c.25-2.99.11-6.22-.03-9.64-.16-3.83-.33-7.78.09-11.44.7-6.07,6.18-11.29,12.47-11.9h.28s180.34.01,180.34.01l.22.03c6.51,1.03,11.48,6.14,12.08,12.44v.28s-.03,23.44-.03,23.44l-85.51,30.09c-.77.93-1.73,1.68-3.52,2.06l-2.25.47-.23-.51-13.59,3.18ZM254.57,250.98c1.43,0,2.84.05,4.22.17,2.19.2,3.63,1.03,4.3,2.45l.23-.05.34-.47,83.34-29.33.04-19.25c-.41-3.57-3.28-6.49-7.06-7.17l-179.73-.03c-3.48.4-6.83,3.57-7.21,6.85-.37,3.21-.22,6.77-.06,10.54.13,2.96.26,6.01.11,8.93l84.08,29.71c.84-1.21,1.96-1.92,3.36-2.14l.31-.05.32.02c2.52.17,5.19.06,8.02-.05,1.78-.07,3.59-.14,5.39-.14ZM277.22,189.54h-54.51l.29-3.13c.86-9.2,6.23-17.33,14.37-21.74,7.95-4.31,17.1-4.36,25.11-.15,8.12,4.27,14.11,13.32,14.57,22l.16,3.01ZM229.22,183.81h41.67c-1.39-5.73-5.69-11.39-11.07-14.22-6.29-3.31-13.48-3.27-19.72.11-5.51,2.99-9.43,8.12-10.88,14.11Z" class="cls-1"/></g></svg>