<?xml version="1.0" encoding="UTF-8"?>
<svg xmlns="http://www.w3.org/2000/svg" onmouseup="{ if(window.parent.document.onmouseup) window.parent.document.onmouseup(arguments[0]);}" viewBox="0 0 500 500" data-name="Layer 1" id="Layer_1"><defs><style>
      .cls-1 {
        fill: #fff;
      }

      .cls-2 {
        fill: #59bd78;
      }
    </style></defs><circle data-cppathid="10000" r="175" cy="250" cx="250" class="cls-2"/><g><g><path data-cppathid="10001" d="M330.44,331.09c-2.3,2.77-4.93,2.95-8.24,3.25-47.8,4.39-102.27-3.43-150.78-.04-4.99-.12-8.18-3.26-8.3-8.3,3.37-48.53-4.4-102.95-.04-150.78.66-7.24,2.22-8.91,9.58-9.58,47.73-4.35,102.19,3.28,150.63.18,9.75-2.33,8.46,19.02,5.85,22.2-.49.6-8.59,6.19-8.9,5.77-.77-5.29,1.92-12.54-1.93-16.6h-141.75l-1.92,1.92v143.67h143.67l1.92-1.92v-89.39l10.22-9.58v109.19Z" class="cls-1"/><path data-cppathid="10002" d="M288.13,337.15c-14.71,0-29.67-.58-44.37-1.14-24.13-.93-49.09-1.89-72.24-.27-5.88-.14-9.69-3.94-9.83-9.69,1.61-23.29.66-48.24-.26-72.37-1.01-26.33-2.05-53.55.23-78.57.73-8.01,2.86-10.14,10.87-10.87,25.28-2.31,52.84-1.25,79.5-.22,23.74.91,48.28,1.85,71.05.41,2.9-.65,5.4.43,7.04,3.03,3.66,5.85,2.38,18.75.13,21.5-.34.41-8.31,6.32-9.97,6.32h-.02l-.7-.02-.69-.87-.05-.36c-.29-1.98-.13-4.16.02-6.27.25-3.53.49-6.88-1.19-9.11h-140.5l-1.08,1.08v141.65h141.65l1.08-1.08v-89.42l13.08-12.26v113.01l-.33.4c-2.62,3.16-5.7,3.44-8.97,3.74l-.25.02c-11.05,1.01-22.55,1.38-34.2,1.38ZM199.38,332c14.73,0,29.76.58,44.49,1.14,26.24,1.01,53.38,2.05,78.2-.23l.25-.02c2.93-.27,4.92-.45,6.69-2.35v-105.35l-7.36,6.9v89.37l-2.75,2.75h-145.69v-145.69l2.75-2.75h142.96l.42.45c2.95,3.12,2.63,7.69,2.34,11.72-.09,1.28-.18,2.51-.17,3.66,2.24-1.38,6.03-4.02,6.57-4.54,1.43-1.75,2.62-13.29-.4-18.1-1.01-1.61-2.31-2.16-4.07-1.74l-.24.04c-22.95,1.47-47.61.52-71.45-.4-26.56-1.02-54.03-2.08-79.13.21-6.6.6-7.68,1.69-8.28,8.28-2.27,24.84-1.23,51.97-.23,78.2.93,24.2,1.88,49.23.26,72.54.11,4.15,2.63,6.67,6.91,6.77,9.07-.64,18.44-.88,27.92-.88Z" class="cls-1"/></g><path data-cppathid="10003" d="M230.85,301.08l-47.27-71.48c4.49-.37,12.96-10.19,16.56-8.39l36.42,40.07,111.78-77.09c9.63,6.03.69,11.19-5.11,16.67-35.67,33.69-73.9,64.84-109.18,98.98l-3.2,1.24Z" class="cls-1"/></g></svg>