<?xml version="1.0" encoding="UTF-8"?>
<svg xmlns="http://www.w3.org/2000/svg" onmouseup="{ if(window.parent.document.onmouseup) window.parent.document.onmouseup(arguments[0]);}" viewBox="0 0 500 500" data-name="Layer 1" id="Layer_1"><defs><style>
      .cls-1 {
        fill: #fff;
      }

      .cls-2 {
        fill: #e45d5a;
      }
    </style></defs><circle data-cppathid="10000" r="175" cy="250" cx="250" class="cls-2"/><g><path data-cppathid="10001" d="M114.58,246.84c3.52-16.12,23.96-21.53,34.07-7.89,1.45,1.95,1.78,3.99,3.31,5.69l24.98.03c1.46-15.81,7.59-30.15,17.47-42.45l-17.44-17.55c-1-.45-6.05,1.79-8.2,1.88-17.21.73-26.87-20.35-14.47-32.48,12.26-12,32.95-2.37,32.22,14.73-.09,2.15-2.33,7.2-1.88,8.2l17.55,17.44c12.3-9.88,26.63-16.01,42.45-17.47l-.03-24.98c-1.69-1.53-3.73-1.86-5.69-3.31-12.03-8.91-9.56-27.94,4.57-32.89,20.55-7.2,34.76,19.69,17.85,32.66-2.05,1.57-4.13,1.97-5.98,3.54l-.03,24.98c15.51,1.56,30.24,7.28,42.07,17.47l17.93-17.43c.45-1-1.79-6.05-1.88-8.2-.74-17.3,20.39-26.83,32.48-14.47,12.02,12.28,2.3,32.94-14.73,32.22-2.15-.09-7.2-2.33-8.2-1.88l-17.43,17.93c10.19,11.84,15.91,26.56,17.47,42.07l24.98-.03c1.56-1.86,1.96-3.94,3.54-5.98,9.1-11.86,28.16-9,32.8,5.26,6.71,20.6-20.3,34.34-33.03,17.16-1.45-1.95-1.78-3.99-3.31-5.69l-24.98-.03c-1.46,15.81-7.59,30.15-17.47,42.45l17.44,17.55c3.61-.36,6.81-2.1,10.75-1.81,15.8,1.16,23.26,20.82,12.18,32.15-11.8,12.06-33.25,3.02-32.48-13.94.09-2.07,2.3-7.79,1.88-8.73l-17.55-17.44c-12.34,9.85-26.61,16.03-42.45,17.47l.03,24.98c1.69,1.53,3.73,1.86,5.69,3.31,13.65,10.12,8.24,30.56-7.89,34.07h-6.35c-16.12-3.52-21.53-23.96-7.89-34.07,1.95-1.45,3.99-1.78,5.69-3.31l.03-24.98c-15.81-1.46-30.15-7.59-42.45-17.47l-17.55,17.44c-.42.94,1.79,6.66,1.88,8.73.76,16.95-20.69,26-32.48,13.94-11.08-11.33-3.62-30.99,12.18-32.15,3.95-.29,7.14,1.46,10.75,1.81l17.44-17.55c-9.88-12.3-16.01-26.63-17.47-42.45l-24.98.03c-1.53,1.69-1.86,3.73-3.31,5.69-10.12,13.65-30.56,8.24-34.07-7.89v-6.35ZM248.81,125.29c-10.31,1.51-8.6,17.64,2.46,16.24,10.23-1.3,8.33-17.83-2.46-16.24ZM165.21,159.69c-8.08,1.68-7.82,15.51,2.18,15.97,11.7.54,10.59-18.62-2.18-15.97ZM330.25,159.69c-8.29,1.72-7.83,15.99,2,15.99,11.92,0,10.59-18.6-2-15.99ZM266.92,267.99c12.63,3.92,22.04,13.77,27.77,25.39,30.64-31.4,19.73-84.07-20.7-100.95-50.42-21.04-101.98,29.19-82.19,80.07,14.71,37.82,60.62,51.45,94.14,28.77-7.43-23.15-34.77-32.56-55.68-20.48-3.72,2.15-9.2,8.39-12.97,2.71-4.92-7.41,9.23-12.12,13.65-15.25-15.87-15.79-5.3-43.04,17.18-43.67,22.83-.64,34.18,27.07,18.8,43.39ZM247.24,235.35c-18.6,1.69-16.68,30.12,1.93,29.49,19.61-.65,18.18-31.32-1.93-29.49ZM130.82,242.19c-7.53,1.7-7.35,14.75.93,15.77,13.72,1.69,12.55-18.81-.93-15.77ZM364.1,242.2c-7.65,1.58-7.76,15.02,1.44,15.77,12.93,1.06,11.91-18.52-1.44-15.77ZM167.74,324.36c-10.38.01-10.79,14.69-2.08,16.07,12.31,1.95,13.28-16.09,2.08-16.07ZM332.24,324.36c-11.19-.01-10.22,18.02,2.08,16.07,8.71-1.38,8.3-16.06-2.08-16.07ZM248.26,358.57c-9.63,1.73-7.73,17.22,2.46,16.25,10.93-1.05,9.14-18.33-2.46-16.25Z" class="cls-1"/><path data-cppathid="10002" d="M210.69,285.04c8.75-2.6,9.67,11.11,1.61,10.36-6.08-.57-6.11-9.02-1.61-10.36Z" class="cls-1"/></g></svg>